<?xml version="1.0" standalone="no"?>
<!DOCTYPE svg PUBLIC "-//W3C//DTD SVG 20010904//EN"
 "http://www.w3.org/TR/2001/REC-SVG-20010904/DTD/svg10.dtd">
<svg version="1.0" xmlns="http://www.w3.org/2000/svg"
 width="484.000000pt" height="444.000000pt" viewBox="0 0 484.000000 444.000000"
 preserveAspectRatio="xMidYMid meet">

<g transform="translate(0.000000,444.000000) scale(0.100000,-0.100000)"
fill="#000000" stroke="none">
<path d="M2906 3803 c-10 -10 -7 -25 4 -18 5 3 19 1 30 -5 28 -15 25 -6 -4 13
-13 9 -26 13 -30 10z"/>
<path d="M3040 3757 c-12 -26 -26 -47 -33 -47 -7 0 -20 -14 -29 -30 -14 -24
-14 -30 -3 -30 24 0 75 -74 68 -99 -4 -14 -1 -26 8 -31 7 -5 11 -12 7 -15 -3
-4 -25 14 -48 39 -23 25 -46 43 -51 40 -12 -7 0 -55 18 -72 17 -18 17 -32 -2
-32 -8 0 -15 -4 -15 -9 0 -19 -40 2 -75 40 -20 21 -42 39 -50 39 -9 0 -15 9
-15 23 1 20 2 21 14 5 18 -24 46 -23 46 2 0 13 7 20 20 20 12 0 20 7 20 18 0
14 -10 17 -50 19 -44 3 -52 0 -60 -20 -7 -17 -9 -18 -9 -5 -1 23 -63 107 -79
107 -10 1 -12 -7 -7 -29 l7 -30 -44 6 c-36 5 -45 2 -56 -15 -10 -17 -10 -25 0
-41 10 -15 10 -25 2 -37 -6 -10 -8 -27 -3 -38 14 -36 10 -41 -45 -68 l-55 -27
22 -36 c32 -53 86 -112 107 -119 26 -8 31 -30 15 -62 -22 -42 -18 -52 23 -55
33 -3 37 -6 34 -28 -2 -14 -8 -29 -13 -34 -29 -31 22 -36 54 -5 27 25 77 52
77 42 0 -5 -9 -14 -20 -20 -11 -7 -26 -26 -34 -42 l-16 -29 33 10 c17 6 47 17
65 24 39 17 56 18 47 3 -13 -20 6 -80 37 -115 l31 -35 -43 -127 c-24 -71 -81
-202 -129 -297 l-86 -170 -6 72 c-8 84 -27 146 -79 251 -42 87 -84 142 -107
142 -13 0 -15 -8 -9 -47 10 -75 61 -172 118 -226 39 -36 53 -57 59 -90 19 -97
13 -120 -60 -250 -38 -67 -87 -151 -109 -187 -54 -86 -112 -187 -112 -195 0
-3 5 -3 12 1 7 4 8 3 4 -5 -4 -6 -11 -9 -15 -7 -4 3 -33 -41 -65 -99 -31 -57
-87 -150 -124 -207 -37 -56 -103 -166 -146 -243 -116 -207 -170 -296 -268
-442 -53 -79 -86 -137 -82 -146 7 -18 35 -31 44 -20 4 4 62 100 130 213 68
113 171 279 230 370 58 91 110 172 113 180 4 8 17 31 29 50 12 19 50 89 86
155 63 118 129 208 214 293 39 39 115 90 308 210 120 75 243 197 279 277 17
38 31 85 25 85 -7 0 -153 -89 -214 -131 -47 -32 -234 -215 -409 -399 l-52 -55
70 120 c101 175 165 282 207 349 21 33 43 76 50 95 7 20 15 35 19 33 12 -6 73
103 115 206 63 154 90 200 124 222 18 10 41 28 51 40 10 11 22 20 26 20 4 0
11 -28 15 -62 l7 -62 23 27 c29 34 39 34 61 -3 11 -19 26 -30 39 -30 12 0 27
-7 34 -15 8 -9 21 -13 32 -9 13 4 28 -2 43 -16 34 -32 67 -19 63 23 -3 30 -1
32 32 32 50 0 49 16 -2 36 -24 9 -43 22 -42 28 1 6 2 16 3 22 0 6 30 -5 65
-25 35 -20 67 -36 70 -36 11 0 6 41 -9 70 -13 25 -13 30 -1 30 7 0 16 9 19 20
3 12 14 20 25 20 30 0 36 30 11 57 -13 12 -29 23 -37 23 -22 0 -8 24 24 39 34
16 64 41 64 53 0 4 -21 8 -47 9 l-48 1 33 14 c17 8 32 18 32 22 0 5 -17 23
-39 40 -31 25 -37 36 -34 57 3 14 9 28 14 31 5 3 9 10 9 16 0 6 -8 4 -18 -5
-25 -22 -39 -22 -20 1 12 14 48 79 48 87 0 9 -64 12 -89 5 -17 -5 -33 -5 -36
0 -3 4 9 38 26 75 40 84 29 105 -30 57 -57 -46 -63 -43 -55 28 4 33 3 60 -2
60 -12 0 -67 -68 -87 -106 -9 -17 -21 -52 -28 -77 -6 -26 -15 -47 -20 -47 -11
0 -22 84 -14 110 11 34 -10 16 -26 -22 -15 -36 -48 -73 -57 -64 -3 4 4 27 16
51 12 25 22 50 22 55 0 13 -37 13 -45 0 -13 -22 -35 -10 -35 20 0 36 -19 81
-42 98 -10 7 -18 20 -18 28 0 8 -7 14 -16 14 -8 0 -13 -4 -9 -9 3 -5 0 -13 -6
-17 -8 -4 -9 -25 -5 -60 7 -58 1 -84 -19 -84 -24 0 -27 19 -14 111 6 49 9 92
6 96 -4 3 -16 -15 -27 -40z m-313 -143 c39 -30 38 -44 -1 -19 -16 11 -26 13
-26 6 0 -6 12 -17 28 -23 26 -11 26 -12 4 -16 -18 -3 -21 -8 -16 -24 5 -18 4
-18 -16 -8 -25 13 -60 67 -60 93 0 26 47 22 87 -9z m58 -62 c6 -4 19 -25 31
-47 l21 -41 -21 -2 c-23 -1 -56 24 -56 44 0 7 -6 14 -12 17 -10 3 -10 7 1 20
15 19 21 20 36 9z m-97 -73 c10 -15 11 -24 3 -32 -12 -12 23 -57 46 -57 7 0
13 -5 13 -11 0 -6 -9 -9 -20 -6 -11 3 -22 1 -25 -3 -7 -11 -25 -4 -89 34 -45
27 -47 30 -30 43 10 7 27 12 38 12 17 -1 18 -2 4 -6 -27 -7 -22 -18 17 -36 46
-22 49 -21 24 4 -17 17 -18 23 -7 36 10 13 10 17 1 20 -17 6 -17 23 0 23 7 0
18 -10 25 -21z m270 -45 c39 -11 27 -33 -15 -28 -52 8 -63 12 -63 24 0 11 42
13 78 4z m60 -70 c-4 -22 -35 -31 -52 -14 -8 9 -5 16 13 31 27 22 45 13 39
-17z m474 -1 c26 -8 30 -44 7 -61 -20 -14 -20 -14 -1 -36 26 -28 18 -45 -43
-93 -44 -34 -53 -38 -77 -29 -32 11 -47 44 -27 58 10 7 8 8 -8 5 -18 -4 -23
-1 -23 16 1 22 42 48 103 62 15 4 27 11 27 15 0 11 -57 23 -69 16 -5 -3 -20
-2 -33 3 -22 9 -21 10 22 29 66 29 73 31 90 25 8 -3 22 -7 32 -10z m-522 -58
c0 -11 -11 -15 -42 -15 l-43 1 30 14 c40 18 55 18 55 0z m639 -84 c11 -7 9
-10 -8 -16 -22 -7 -41 0 -41 16 0 11 30 12 49 0z m-311 -13 c16 -16 15 -28 -3
-28 -8 0 -15 5 -15 10 0 6 -7 10 -16 10 -8 0 -12 5 -9 10 8 14 28 13 43 -2z
m-125 -5 c-7 -2 -19 -2 -25 0 -7 3 -2 5 12 5 14 0 19 -2 13 -5z m52 -23 c10
-11 13 -20 7 -20 -6 0 -16 9 -22 20 -6 11 -9 20 -7 20 2 0 12 -9 22 -20z
m-108 -42 c-3 -8 -6 -5 -6 6 -1 11 2 17 5 13 3 -3 4 -12 1 -19z m210 -40 c-3
-8 -6 -5 -6 6 -1 11 2 17 5 13 3 -3 4 -12 1 -19z m-47 -28 c0 -5 -2 -10 -4
-10 -3 0 -8 5 -11 10 -3 6 -1 10 4 10 6 0 11 -4 11 -10z"/>
<path d="M2760 3758 c0 -3 23 -19 50 -37 28 -18 55 -41 60 -52 12 -22 30 -25
30 -5 0 20 -78 83 -113 91 -15 4 -27 5 -27 3z"/>
<path d="M2960 3752 c0 -5 7 -15 15 -22 8 -7 15 -8 15 -2 0 5 -7 15 -15 22 -8
7 -15 8 -15 2z"/>
</g>
</svg>
